<svg xmlns="http://www.w3.org/2000/svg" viewBox="0 0 932.03 932.03"><defs><style>.cls-1{fill:#f6ead4;}.cls-2{fill:#91989c;}.cls-3{fill:#b9bdc3;}.cls-4{fill:#232525;}.cls-5{fill:#515355;}.cls-6{fill:#8c9b9f;}.cls-7{fill:#7c9097;}.cls-8{opacity:0.35;}</style></defs><g id="Слой_2" data-name="Слой 2"><g id="Слой_1-2" data-name="Слой 1"><rect class="cls-1" width="932.03" height="932.03"/><path class="cls-2" d="M715.34,593.92,323.06,521.43a17.64,17.64,0,0,1-14-21.43L382,193.26c2-8.49,6.47-16.27,15.16-15.55l401.54,27.13a17.64,17.64,0,0,1,15.77,21.41L735.78,580.39A17.66,17.66,0,0,1,715.34,593.92Z"/><path class="cls-3" d="M709.89,589.19,326.41,518.33a17.25,17.25,0,0,1-13.66-21l72-303.18c2-8.3,4.87-13.91,13.37-13.2l393.2,27.83a17.27,17.27,0,0,1,15.42,20.94L729.87,576A17.26,17.26,0,0,1,709.89,589.19Z"/><polygon class="cls-4" points="712.36 559.59 333.28 490.08 402.96 203.41 785.37 237.19 712.36 559.59"/><path class="cls-5" d="M455.76,731.54,54.8,626.9c-9.9-2.58-10.66-16.25-1.09-19.71l253-91.49a10.51,10.51,0,0,1,5.42-.45l407.78,73.84c10,1.8,7.75,3.27-1.37,7.56L462.87,730.89A10.5,10.5,0,0,1,455.76,731.54Z"/><path class="cls-6" d="M453.61,726.14,56.15,623.36c-9.82-2.53-10.51-16.21-1-19.72l251.55-92.76a10.22,10.22,0,0,1,5.39-.48l404.37,71.91a10.35,10.35,0,0,1,2.65,19.52L460.66,725.46A10.35,10.35,0,0,1,453.61,726.14Z"/><path class="cls-7" d="M305,678.42l-132-33.06a1.19,1.19,0,0,1-.15-2.27l98-38.67a9.3,9.3,0,0,1,5.42-.43l133.56,29.85A1.68,1.68,0,0,1,410,637l-100.2,41A7.8,7.8,0,0,1,305,678.42Z"/><path class="cls-4" d="M445.41,631.79l-260-57.2c-2-.7-2.72-2.53-1-2.67l127.75-45c2.72-.21,6.82-3.59,10-2.53L683,593.81c2.87,1-73.32,34.69-86.46,41.39l-38.27,19.27C555.8,654.69,448.29,632.79,445.41,631.79Z"/><g class="cls-8"><path d="M455.8,724.55l-.13,0L54.1,618.84a.5.5,0,0,1,.25-1L455.74,723.51l259.38-130a.5.5,0,0,1,.45.89L456,724.49A.43.43,0,0,1,455.8,724.55Z"/></g></g></g></svg>