<svg id="Слой_1" data-name="Слой 1" xmlns="http://www.w3.org/2000/svg" viewBox="0 0 145.7 149.1"><defs><style>.cls-1{fill:#327a71;}.cls-2{fill:#fff;}</style></defs><circle class="cls-1" cx="72.85" cy="73.12" r="71.54"/><path class="cls-2" d="M42.24,58.43a20.33,20.33,0,0,1,2.91-.22,6.1,6.1,0,0,1,4.29,1.32,4.89,4.89,0,0,1,1.49,3.8,5.6,5.6,0,0,1-1.52,4.12A6.54,6.54,0,0,1,44.72,69a21.61,21.61,0,0,1-2.48-.13Zm1.37,9.37a8.91,8.91,0,0,0,1.38.08c2.92,0,4.51-1.64,4.51-4.5,0-2.5-1.4-4.08-4.29-4.08a7.63,7.63,0,0,0-1.6.14Z"/><path class="cls-2" d="M54.2,59.14a.86.86,0,0,1-1.72,0,.85.85,0,0,1,.87-.87A.82.82,0,0,1,54.2,59.14Zm-1.54,9.74v-7.6H54v7.6Z"/><path class="cls-2" d="M56.15,67.47A3.66,3.66,0,0,0,58,68c1,0,1.48-.51,1.48-1.13s-.4-1-1.42-1.4c-1.37-.49-2-1.24-2-2.16a2.35,2.35,0,0,1,2.62-2.23,3.8,3.8,0,0,1,1.87.47l-.34,1a3,3,0,0,0-1.56-.44c-.81,0-1.27.47-1.27,1s.46.91,1.45,1.29c1.32.5,2,1.16,2,2.29,0,1.34-1,2.28-2.84,2.28a4.36,4.36,0,0,1-2.14-.52Z"/><path class="cls-2" d="M62.56,63.76c0-1,0-1.76-.07-2.48h1.25l.06,1.3h0a3,3,0,0,1,2.7-1.48c1.84,0,3.22,1.56,3.22,3.87,0,2.73-1.66,4.08-3.45,4.08A2.66,2.66,0,0,1,64,67.86h0V72H62.56Zm1.36,2a3.17,3.17,0,0,0,.07.56A2.13,2.13,0,0,0,66.06,68c1.46,0,2.31-1.19,2.31-2.94,0-1.52-.8-2.83-2.26-2.83A2.21,2.21,0,0,0,64,63.92a2.05,2.05,0,0,0-.1.56Z"/><path class="cls-2" d="M78.38,65a3.71,3.71,0,0,1-3.79,4A3.61,3.61,0,0,1,71,65.14a3.71,3.71,0,0,1,3.77-4A3.61,3.61,0,0,1,78.38,65Zm-6,.07c0,1.67,1,2.93,2.31,2.93s2.31-1.24,2.31-3c0-1.29-.64-2.92-2.27-2.92S72.34,63.65,72.34,65.09Z"/><path class="cls-2" d="M80.12,63.33c0-.78,0-1.42-.06-2h1.23l.07,1.25h0a2.78,2.78,0,0,1,2.51-1.43c1,0,2.69.63,2.69,3.24v4.54H85.21V64.5c0-1.23-.45-2.25-1.76-2.25a2,2,0,0,0-1.85,1.41,2.13,2.13,0,0,0-.09.65v4.57H80.12Z"/><path class="cls-2" d="M90.38,59.14a.82.82,0,0,1-.88.85.83.83,0,0,1-.83-.85.84.84,0,0,1,.86-.87A.82.82,0,0,1,90.38,59.14Zm-1.54,9.74v-7.6h1.39v7.6Z"/><path class="cls-2" d="M92.46,68.88c0-.52.06-1.29.06-2V57.73h1.37V62.5h0a2.84,2.84,0,0,1,2.59-1.4c1.89,0,3.22,1.57,3.21,3.88,0,2.72-1.72,4.07-3.41,4.07a2.71,2.71,0,0,1-2.55-1.43h-.05l-.06,1.26Zm1.43-3a2.74,2.74,0,0,0,.06.51A2.14,2.14,0,0,0,96,68c1.45,0,2.31-1.17,2.31-2.92,0-1.52-.78-2.83-2.26-2.83A2.2,2.2,0,0,0,94,63.9a2.3,2.3,0,0,0-.08.57Z"/><path class="cls-2" d="M101.46,57.73h1.38V68.88h-1.38Z"/><path class="cls-2" d="M105.94,65.33A2.43,2.43,0,0,0,108.55,68a5,5,0,0,0,2.1-.39l.24,1a6.18,6.18,0,0,1-2.53.47,3.53,3.53,0,0,1-3.74-3.84c0-2.29,1.35-4.1,3.56-4.1,2.49,0,3.15,2.19,3.15,3.59a4.34,4.34,0,0,1,0,.64Zm4-1a2,2,0,0,0-1.92-2.25A2.3,2.3,0,0,0,106,64.34Z"/><path class="cls-2" d="M26.35,78a.86.86,0,0,1-1.72,0,.85.85,0,0,1,.87-.86A.82.82,0,0,1,26.35,78Zm-1.54,9.75V80.13h1.38v7.61Z"/><path class="cls-2" d="M28.48,82.19c0-.79,0-1.43-.06-2.06h1.21l.06,1.23h0A2.62,2.62,0,0,1,32.13,80a2.25,2.25,0,0,1,2.15,1.52h0a3.35,3.35,0,0,1,.85-1A2.64,2.64,0,0,1,36.84,80c1,0,2.5.66,2.5,3.3v4.48H38V83.43c0-1.46-.53-2.34-1.65-2.34a1.78,1.78,0,0,0-1.63,1.26,2.08,2.08,0,0,0-.11.69v4.7H33.25V83.18c0-1.21-.54-2.09-1.59-2.09A1.88,1.88,0,0,0,30,82.47a1.9,1.9,0,0,0-.11.68v4.59H28.48Z"/><path class="cls-2" d="M41.59,82.19c0-.79,0-1.43-.06-2.06h1.2l.07,1.23h0A2.63,2.63,0,0,1,45.23,80a2.26,2.26,0,0,1,2.16,1.52h0a3.09,3.09,0,0,1,.85-1A2.6,2.6,0,0,1,50,80c1,0,2.5.66,2.5,3.3v4.48H51.09V83.43c0-1.46-.53-2.34-1.65-2.34a1.79,1.79,0,0,0-1.63,1.26,2.38,2.38,0,0,0-.11.69v4.7H46.35V83.18c0-1.21-.53-2.09-1.59-2.09a2.06,2.06,0,0,0-1.82,2.06v4.59H41.59Z"/><path class="cls-2" d="M55.46,84.19a2.44,2.44,0,0,0,2.61,2.64,5,5,0,0,0,2.11-.4l.23,1a6.18,6.18,0,0,1-2.53.47,3.53,3.53,0,0,1-3.74-3.83c0-2.29,1.35-4.1,3.57-4.1,2.48,0,3.14,2.18,3.14,3.58a4.64,4.64,0,0,1-.05.65Zm4.06-1A2,2,0,0,0,57.6,81a2.29,2.29,0,0,0-2.12,2.25Zm.33-6.35-1.92,2.24h-1l1.38-2.24Z"/><path class="cls-2" d="M69.13,76.58v9.19c0,.68,0,1.45.06,2H68l-.06-1.32h0a2.81,2.81,0,0,1-2.59,1.49C63.43,87.91,62,86.35,62,84,62,81.51,63.57,80,65.42,80a2.55,2.55,0,0,1,2.3,1.16h0V76.58Zm-1.38,6.65a2.78,2.78,0,0,0-.06-.58,2,2,0,0,0-2-1.61c-1.43,0-2.28,1.26-2.28,2.94s.76,2.81,2.25,2.81a2.08,2.08,0,0,0,2-1.65,2.68,2.68,0,0,0,.06-.59Z"/><path class="cls-2" d="M73,78a.86.86,0,0,1-1.72,0,.84.84,0,0,1,.87-.86A.82.82,0,0,1,73,78Zm-1.54,9.75V80.13h1.38v7.61Z"/><path class="cls-2" d="M79.31,87.74l-.11-1h0a2.83,2.83,0,0,1-2.33,1.13,2.17,2.17,0,0,1-2.33-2.18c0-1.84,1.64-2.85,4.58-2.83v-.16A1.57,1.57,0,0,0,77.35,81a3.73,3.73,0,0,0-2,.57l-.32-.92a4.8,4.8,0,0,1,2.5-.67c2.33,0,2.9,1.59,2.9,3.11v2.84a11.31,11.31,0,0,0,.12,1.83Zm-.2-3.88c-1.51,0-3.22.23-3.22,1.71a1.22,1.22,0,0,0,1.3,1.32A1.9,1.9,0,0,0,79,85.62a1.41,1.41,0,0,0,.08-.44Z"/><path class="cls-2" d="M84.28,78v2.18h2v1.05h-2v4.11c0,.94.27,1.47,1,1.47a3,3,0,0,0,.8-.09l.06,1a3.43,3.43,0,0,1-1.23.18,1.91,1.91,0,0,1-1.49-.58,2.83,2.83,0,0,1-.53-2V81.18H81.75V80.13h1.18V78.31Z"/><path class="cls-2" d="M88.49,84.19a2.43,2.43,0,0,0,2.61,2.64,5,5,0,0,0,2.1-.4l.24,1a6.18,6.18,0,0,1-2.53.47,3.53,3.53,0,0,1-3.74-3.83c0-2.29,1.35-4.1,3.57-4.1,2.48,0,3.14,2.18,3.14,3.58a4.64,4.64,0,0,1,0,.65Zm4.05-1A2,2,0,0,0,90.63,81,2.3,2.3,0,0,0,88.5,83.2Z"/><path class="cls-2" d="M95.59,82.19c0-.79,0-1.43-.06-2.06h1.21l.06,1.23h0A2.6,2.6,0,0,1,99.24,80a2.26,2.26,0,0,1,2.15,1.52h0a3.22,3.22,0,0,1,.85-1A2.62,2.62,0,0,1,104,80c1,0,2.5.66,2.5,3.3v4.48H105.1V83.43c0-1.46-.54-2.34-1.65-2.34a1.79,1.79,0,0,0-1.64,1.26,2.38,2.38,0,0,0-.11.69v4.7h-1.35V83.18c0-1.21-.53-2.09-1.59-2.09a2.06,2.06,0,0,0-1.82,2.06v4.59H95.59Z"/><path class="cls-2" d="M109.46,84.19a2.44,2.44,0,0,0,2.61,2.64,5,5,0,0,0,2.11-.4l.23,1a6.14,6.14,0,0,1-2.53.47,3.53,3.53,0,0,1-3.74-3.83c0-2.29,1.36-4.1,3.57-4.1,2.48,0,3.14,2.18,3.14,3.58,0,.28,0,.5,0,.65Zm4.06-1A2,2,0,0,0,111.6,81a2.29,2.29,0,0,0-2.12,2.25Z"/><path class="cls-2" d="M116.57,82.19c0-.79,0-1.43-.07-2.06h1.23l.08,1.26h0A2.81,2.81,0,0,1,120.35,80c1.06,0,2.69.63,2.69,3.24v4.54h-1.38V83.35c0-1.22-.46-2.24-1.76-2.24A2,2,0,0,0,118,82.52a2.06,2.06,0,0,0-.09.64v4.58h-1.38Z"/><path class="cls-2" d="M126.89,78v2.18h2v1.05h-2v4.11c0,.94.27,1.47,1,1.47a3,3,0,0,0,.8-.09l.06,1a3.41,3.41,0,0,1-1.22.18,1.91,1.91,0,0,1-1.5-.58,2.83,2.83,0,0,1-.53-2V81.18h-1.18V80.13h1.18V78.31Z"/><path class="cls-2" d="M72.85,145.7A72.85,72.85,0,1,1,145.7,72.85,72.93,72.93,0,0,1,72.85,145.7Zm0-143.08a70.23,70.23,0,1,0,70.23,70.23A70.3,70.3,0,0,0,72.85,2.62Z"/></svg>