<svg id="Слой_1" data-name="Слой 1" xmlns="http://www.w3.org/2000/svg" viewBox="0 0 154.69 150.74"><defs><style>.cls-1{fill:#327a71;}.cls-2{fill:#f6f6f6;}.cls-3{fill:#fff;}</style></defs><circle class="cls-1" cx="79.32" cy="75.65" r="74.01"/><path class="cls-2" d="M46.07,55.36H41.81v4h4.75V60.5H40.4v-11h5.91v1.19h-4.5v3.46h4.26Z"/><path class="cls-2" d="M48.34,54.76c0-.81,0-1.48-.06-2.13h1.27l.08,1.3h0a2.89,2.89,0,0,1,2.6-1.48c1.09,0,2.78.65,2.78,3.35v4.7H53.61V56c0-1.27-.47-2.32-1.82-2.32a2,2,0,0,0-1.92,1.46,2.22,2.22,0,0,0-.09.67V60.5H48.34Z"/><path class="cls-2" d="M60.81,55.09c0-.93,0-1.73-.06-2.46H62l0,1.54h.06a2.37,2.37,0,0,1,2.18-1.72,1.7,1.7,0,0,1,.41,0v1.35a2.31,2.31,0,0,0-.49-.05,2,2,0,0,0-1.92,1.84,4.25,4.25,0,0,0-.06.66v4.2H60.81Z"/><path class="cls-2" d="M66.76,56.82a2.53,2.53,0,0,0,2.7,2.74,5.16,5.16,0,0,0,2.18-.41l.24,1a6.28,6.28,0,0,1-2.61.49,3.65,3.65,0,0,1-3.87-4c0-2.37,1.39-4.24,3.69-4.24,2.57,0,3.25,2.26,3.25,3.71a4.54,4.54,0,0,1,0,.66Zm4.2-1a2,2,0,0,0-2-2.32,2.37,2.37,0,0,0-2.19,2.32Z"/><path class="cls-2" d="M79.72,60.21a5.42,5.42,0,0,1-2.26.45,3.74,3.74,0,0,1-3.92-4,4,4,0,0,1,4.23-4.18,4.88,4.88,0,0,1,2,.4L79.42,54a3.23,3.23,0,0,0-1.65-.37,3,3,0,0,0,0,5.91,4,4,0,0,0,1.75-.39Z"/><path class="cls-2" d="M81.39,49h1.43v4.91h0a2.63,2.63,0,0,1,1-1,2.88,2.88,0,0,1,1.46-.41c1.06,0,2.75.65,2.75,3.37V60.5H86.66V56c0-1.27-.47-2.34-1.82-2.34a2.05,2.05,0,0,0-1.92,1.43,1.74,1.74,0,0,0-.1.68V60.5H81.39Z"/><path class="cls-2" d="M91.21,56.82a2.53,2.53,0,0,0,2.7,2.74,5.16,5.16,0,0,0,2.18-.41l.24,1a6.29,6.29,0,0,1-2.62.49,3.66,3.66,0,0,1-3.87-4c0-2.37,1.4-4.24,3.69-4.24,2.57,0,3.26,2.26,3.26,3.71,0,.29,0,.52-.05.66Zm4.19-1a2,2,0,0,0-2-2.32,2.36,2.36,0,0,0-2.19,2.32Z"/><path class="cls-2" d="M98.56,55.09c0-.93,0-1.73-.07-2.46h1.25l.05,1.54h.07A2.37,2.37,0,0,1,102,52.45a1.62,1.62,0,0,1,.4,0v1.35a2.24,2.24,0,0,0-.49-.05A2,2,0,0,0,100,55.64a3.26,3.26,0,0,0-.07.66v4.2H98.56Z"/><path class="cls-2" d="M109.32,60.21a5.38,5.38,0,0,1-2.26.45,3.74,3.74,0,0,1-3.92-4,4,4,0,0,1,4.23-4.18,4.88,4.88,0,0,1,2,.4L109,54a3.28,3.28,0,0,0-1.66-.37,3,3,0,0,0-.05,5.91,4.09,4.09,0,0,0,1.76-.39Z"/><path class="cls-2" d="M111,49h1.43v4.91h0a2.54,2.54,0,0,1,1-1,2.88,2.88,0,0,1,1.46-.41c1.06,0,2.75.65,2.75,3.37V60.5h-1.43V56c0-1.27-.47-2.34-1.82-2.34a2.05,2.05,0,0,0-1.92,1.43,1.74,1.74,0,0,0-.1.68V60.5H111Z"/><path class="cls-2" d="M120.81,56.82a2.53,2.53,0,0,0,2.7,2.74,5.16,5.16,0,0,0,2.18-.41l.24,1a6.28,6.28,0,0,1-2.61.49,3.65,3.65,0,0,1-3.87-4c0-2.37,1.39-4.24,3.69-4.24,2.57,0,3.25,2.26,3.25,3.71a4.54,4.54,0,0,1,0,.66Zm4.2-1a2,2,0,0,0-2-2.32,2.37,2.37,0,0,0-2.19,2.32Z"/><path class="cls-2" d="M38.37,68.46V78c0,.7,0,1.5.07,2H37.15l-.06-1.37h0a2.91,2.91,0,0,1-2.69,1.54c-1.9,0-3.36-1.6-3.36-4C31,73.57,32.62,72,34.54,72a2.64,2.64,0,0,1,2.37,1.2h0v-4.7Zm-1.43,6.88a2.45,2.45,0,0,0-.06-.6,2.1,2.1,0,0,0-2.07-1.66c-1.48,0-2.36,1.3-2.36,3,0,1.59.79,2.91,2.33,2.91a2.15,2.15,0,0,0,2.1-1.71,2.38,2.38,0,0,0,.06-.61Z"/><path class="cls-2" d="M42.65,68.87a19.32,19.32,0,0,1-1.53,3.85l-.91.12a22.93,22.93,0,0,0,1-3.82Z"/><path class="cls-2" d="M48.27,80l-.11-1h0a2.92,2.92,0,0,1-2.41,1.17,2.24,2.24,0,0,1-2.4-2.26C43.3,76,45,75,48,75v-.16A1.62,1.62,0,0,0,46.24,73a3.9,3.9,0,0,0-2.05.58l-.32-.94a4.8,4.8,0,0,1,2.58-.7c2.41,0,3,1.64,3,3.22v2.94A12,12,0,0,0,49.57,80Zm-.21-4c-1.56,0-3.33.24-3.33,1.77a1.27,1.27,0,0,0,1.35,1.37A2,2,0,0,0,48,77.81a1.47,1.47,0,0,0,.08-.45Z"/><path class="cls-2" d="M51.75,68.46h1.43V80H51.75Z"/><path class="cls-2" d="M57.31,69.88v2.26h2v1.09h-2v4.24c0,1,.28,1.53,1.07,1.53a3.09,3.09,0,0,0,.83-.1L59.28,80a3.39,3.39,0,0,1-1.27.2,2,2,0,0,1-1.55-.6,3,3,0,0,1-.55-2V73.23H54.69V72.14h1.22V70.25Z"/><path class="cls-2" d="M61.67,76.33a2.51,2.51,0,0,0,2.69,2.73,5.28,5.28,0,0,0,2.18-.4l.25,1a6.37,6.37,0,0,1-2.62.49,3.66,3.66,0,0,1-3.87-4C60.3,73.83,61.7,72,64,72c2.57,0,3.25,2.26,3.25,3.71a4.54,4.54,0,0,1,0,.66Zm4.19-1a2,2,0,0,0-2-2.33,2.38,2.38,0,0,0-2.2,2.33Z"/><path class="cls-2" d="M69,74.59c0-.92,0-1.72-.06-2.45H70.2l0,1.54h.06A2.37,2.37,0,0,1,72.49,72a1.32,1.32,0,0,1,.41.05v1.35a1.8,1.8,0,0,0-.49,0,2,2,0,0,0-1.92,1.83,4.51,4.51,0,0,0-.06.67V80H69Z"/><path class="cls-2" d="M74.39,74.27c0-.82,0-1.48-.06-2.13H75.6l.08,1.3h0A2.89,2.89,0,0,1,78.31,72c1.09,0,2.78.65,2.78,3.35V80H79.66V75.47c0-1.27-.47-2.32-1.82-2.32a2,2,0,0,0-1.92,1.46,2.2,2.2,0,0,0-.1.67V80H74.39Z"/><path class="cls-2" d="M87.77,80l-.11-1h0a2.92,2.92,0,0,1-2.41,1.17,2.24,2.24,0,0,1-2.4-2.26C82.8,76,84.49,75,87.53,75v-.16A1.62,1.62,0,0,0,85.74,73a3.9,3.9,0,0,0-2,.58l-.32-.94A4.8,4.8,0,0,1,86,72c2.41,0,3,1.64,3,3.22v2.94A12,12,0,0,0,89.07,80Zm-.21-4c-1.56,0-3.33.24-3.33,1.77a1.27,1.27,0,0,0,1.35,1.37,2,2,0,0,0,1.9-1.32,1.47,1.47,0,0,0,.08-.45Z"/><path class="cls-2" d="M91.25,74.27c0-.82,0-1.48-.06-2.13h1.26l.09,1.3h0A2.89,2.89,0,0,1,95.17,72c1.09,0,2.78.65,2.78,3.35V80H96.52V75.47c0-1.27-.47-2.32-1.82-2.32a2,2,0,0,0-1.92,1.46,1.93,1.93,0,0,0-.1.67V80H91.25Z"/><path class="cls-2" d="M105.88,79.71a5.16,5.16,0,0,1-2.26.46,3.74,3.74,0,0,1-3.92-4A4,4,0,0,1,103.93,72a4.82,4.82,0,0,1,2,.41l-.32,1.11a3.26,3.26,0,0,0-1.66-.38,2.73,2.73,0,0,0-2.78,3A2.7,2.7,0,0,0,103.88,79a4.09,4.09,0,0,0,1.76-.39Z"/><path class="cls-2" d="M108.26,76.33A2.51,2.51,0,0,0,111,79.06a5.28,5.28,0,0,0,2.18-.4l.25,1a6.37,6.37,0,0,1-2.62.49,3.66,3.66,0,0,1-3.87-4c0-2.37,1.4-4.24,3.69-4.24,2.57,0,3.25,2.26,3.25,3.71a4.54,4.54,0,0,1,0,.66Zm4.19-1a2,2,0,0,0-2-2.33,2.38,2.38,0,0,0-2.2,2.33Z"/><path class="cls-2" d="M126.17,76a3.84,3.84,0,0,1-3.92,4.17,3.74,3.74,0,0,1-3.77-4,3.84,3.84,0,0,1,3.9-4.18A3.73,3.73,0,0,1,126.17,76Zm-6.24.08c0,1.72,1,3,2.39,3s2.39-1.28,2.39-3c0-1.34-.67-3-2.36-3S119.93,74.59,119.93,76.09Z"/><path class="cls-2" d="M134.56,77.86c0,.81,0,1.53.06,2.15h-1.27l-.08-1.29h0a2.94,2.94,0,0,1-2.6,1.46c-1.24,0-2.72-.68-2.72-3.44v-4.6h1.43v4.35c0,1.5.46,2.51,1.76,2.51A2.08,2.08,0,0,0,133,77.7a2.11,2.11,0,0,0,.13-.73V72.14h1.43Z"/><path class="cls-2" d="M33.29,88v9.51c0,.7,0,1.5.07,2H32.07L32,98.15h0a2.93,2.93,0,0,1-2.69,1.54c-1.9,0-3.36-1.61-3.36-4,0-2.62,1.61-4.22,3.53-4.22a2.62,2.62,0,0,1,2.37,1.2h0V88Zm-1.43,6.88a2.53,2.53,0,0,0-.06-.61,2.1,2.1,0,0,0-2.07-1.65c-1.48,0-2.36,1.3-2.36,3s.79,2.91,2.33,2.91a2.16,2.16,0,0,0,2.1-1.71,2.46,2.46,0,0,0,.06-.62Z"/><path class="cls-2" d="M37.57,88.38A19.57,19.57,0,0,1,36,92.23l-.91.11a22.93,22.93,0,0,0,1-3.82Z"/><path class="cls-2" d="M45.71,97.37c0,.81,0,1.52.07,2.14H44.51l-.08-1.28h0a3,3,0,0,1-2.61,1.46c-1.23,0-2.71-.68-2.71-3.45v-4.6h1.43V96c0,1.5.45,2.5,1.76,2.5a2.06,2.06,0,0,0,1.88-1.3,2.11,2.11,0,0,0,.13-.73V91.64h1.43Z"/><path class="cls-2" d="M48.08,93.77c0-.81,0-1.48-.06-2.13h1.27l.08,1.3h0A2.9,2.9,0,0,1,52,91.47c1.09,0,2.78.65,2.78,3.34v4.7H53.35V95c0-1.27-.47-2.33-1.82-2.33a2,2,0,0,0-1.92,1.47,2.13,2.13,0,0,0-.1.66v4.73H48.08Z"/><path class="cls-2" d="M60.55,94.21c0-1,0-1.82-.06-2.57h1.28L61.84,93h0a3.08,3.08,0,0,1,2.8-1.52c1.9,0,3.33,1.6,3.33,4,0,2.83-1.72,4.23-3.58,4.23A2.75,2.75,0,0,1,62,98.46h0v4.27H60.55ZM62,96.31a3.57,3.57,0,0,0,.06.59,2.2,2.2,0,0,0,2.15,1.67c1.51,0,2.39-1.24,2.39-3,0-1.58-.83-2.93-2.34-2.93a2.29,2.29,0,0,0-2.17,1.78A2.7,2.7,0,0,0,62,95Z"/><path class="cls-2" d="M76.92,95.51A3.84,3.84,0,0,1,73,99.69a3.74,3.74,0,0,1-3.77-4,3.84,3.84,0,0,1,3.9-4.17A3.72,3.72,0,0,1,76.92,95.51Zm-6.24.08c0,1.73,1,3,2.39,3s2.39-1.29,2.39-3.06c0-1.33-.67-3-2.36-3S70.68,94.1,70.68,95.59Z"/><path class="cls-2" d="M78.53,98.05a3.71,3.71,0,0,0,1.89.57c1,0,1.52-.52,1.52-1.17s-.4-1.06-1.46-1.45c-1.41-.5-2.08-1.28-2.08-2.23a2.42,2.42,0,0,1,2.72-2.3,3.94,3.94,0,0,1,1.93.48l-.36,1a3.13,3.13,0,0,0-1.61-.45c-.84,0-1.31.49-1.31,1.07s.47.94,1.49,1.33c1.37.52,2.07,1.21,2.07,2.38,0,1.38-1.08,2.36-3,2.36a4.57,4.57,0,0,1-2.21-.54Z"/><path class="cls-2" d="M86.89,89.38v2.26h2v1.09h-2V97c0,1,.27,1.52,1.07,1.52a3.23,3.23,0,0,0,.83-.09l.06,1.07a3.52,3.52,0,0,1-1.27.2A2,2,0,0,1,86,99.07a2.88,2.88,0,0,1-.55-2v-4.3H84.27V91.64h1.22V89.76Z"/><path class="cls-2" d="M91.24,95.84a2.53,2.53,0,0,0,2.7,2.73,5.13,5.13,0,0,0,2.18-.41l.24,1a6.44,6.44,0,0,1-2.61.49,3.65,3.65,0,0,1-3.87-4c0-2.38,1.4-4.24,3.69-4.24,2.57,0,3.25,2.25,3.25,3.7a4.84,4.84,0,0,1,0,.67Zm4.2-1a2,2,0,0,0-2-2.32,2.37,2.37,0,0,0-2.19,2.32Z"/><path class="cls-2" d="M100.12,101.79a2.34,2.34,0,0,0,1.56-.6c.39-.46.54-1.08.54-3V91.64h1.43v7.14a4.33,4.33,0,0,1-1,3.24,3.63,3.63,0,0,1-2.44.89Zm3.69-12.36a.89.89,0,0,1-1.77,0,.87.87,0,0,1,.91-.89A.84.84,0,0,1,103.81,89.43Z"/><path class="cls-2" d="M112.57,97.37c0,.81,0,1.52.07,2.14h-1.27l-.08-1.28h0a3,3,0,0,1-2.6,1.46c-1.23,0-2.71-.68-2.71-3.45v-4.6h1.43V96c0,1.5.45,2.5,1.75,2.5A2.06,2.06,0,0,0,111,97.2a2.11,2.11,0,0,0,.13-.73V91.64h1.43Z"/><path class="cls-2" d="M114.94,93.77c0-.81,0-1.48-.06-2.13h1.27l.08,1.3h0a2.9,2.9,0,0,1,2.6-1.47c1.09,0,2.78.65,2.78,3.34v4.7h-1.43V95c0-1.27-.47-2.33-1.82-2.33a2,2,0,0,0-1.92,1.47,2.13,2.13,0,0,0-.1.66v4.73h-1.43Z"/><path class="cls-2" d="M125.56,89.43a.89.89,0,0,1-1.77,0,.87.87,0,0,1,.89-.89A.85.85,0,0,1,125.56,89.43ZM124,99.51V91.64h1.44v7.87Z"/><path class="cls-2" d="M134.89,95.51A3.85,3.85,0,0,1,131,99.69a3.74,3.74,0,0,1-3.77-4,3.84,3.84,0,0,1,3.9-4.17A3.72,3.72,0,0,1,134.89,95.51Zm-6.24.08c0,1.73,1,3,2.39,3s2.39-1.29,2.39-3.06c0-1.33-.67-3-2.36-3S128.65,94.1,128.65,95.59Z"/><path class="cls-2" d="M136.69,94.1c0-.93,0-1.72-.06-2.46h1.25l.05,1.55H138a2.36,2.36,0,0,1,2.18-1.72,1.73,1.73,0,0,1,.41,0v1.35a2.31,2.31,0,0,0-.49,0,2,2,0,0,0-1.92,1.84,4.39,4.39,0,0,0-.06.67v4.19h-1.42Z"/><path class="cls-3" d="M79.32,150.74a75.37,75.37,0,1,1,75.37-75.37A75.45,75.45,0,0,1,79.32,150.74Zm0-148A72.66,72.66,0,1,0,152,75.37,72.74,72.74,0,0,0,79.32,2.71Z"/></svg>